<?xml version="1.0" encoding="UTF-8"?> <svg xmlns="http://www.w3.org/2000/svg" width="162" height="52" viewBox="0 0 162 52" fill="none"><path d="M159.878 39.7637H88.9014C87.7294 39.7637 86.7793 40.7152 86.7793 41.8891V49.8748C86.7793 51.0486 87.7294 52.0002 88.9014 52.0002H159.878C161.05 52.0002 162 51.0486 162 49.8748V41.8891C162 40.7152 161.05 39.7637 159.878 39.7637Z" fill="#D34336"></path><path fill-rule="evenodd" clip-rule="evenodd" d="M130.622 42.4874C129.612 42.4874 129.056 43.0858 129.056 44.1382V47.5429C129.056 48.5953 129.612 49.1937 130.622 49.1937C131.631 49.1937 132.188 48.5953 132.188 47.5429V44.1382C132.188 43.0858 131.631 42.4874 130.622 42.4874ZM130.148 41.1874L129.324 42.2191H130.189L130.601 41.7033L131.013 42.2191H131.899L131.075 41.1874H130.148ZM130.622 48.2652C130.292 48.2652 130.086 48.1001 130.086 47.6255V44.0763C130.086 43.6223 130.292 43.4366 130.622 43.4366C130.951 43.4366 131.157 43.6017 131.157 44.0763V47.6255C131.157 48.0794 130.951 48.2652 130.622 48.2652ZM110.74 45.4795H109.298V45.5001V46.4287H109.772V47.6462C109.772 48.1208 109.566 48.2859 109.236 48.2859C108.906 48.2859 108.7 48.1208 108.7 47.6462V44.097C108.7 43.643 108.906 43.4573 109.236 43.4573C109.566 43.4573 109.772 43.6224 109.772 44.097V44.7985H110.74V44.1589C110.74 43.1065 110.225 42.5081 109.195 42.5081C108.165 42.5081 107.65 43.1065 107.65 44.1589V47.5636C107.65 48.616 108.165 49.2144 109.195 49.2144C110.225 49.2144 110.74 48.616 110.74 47.5636V45.4795ZM98.3166 47.9144L99.0995 42.5493H100.047L99.0377 49.1112H97.4925L96.4829 42.5493H97.5131L98.296 47.9144H98.3166ZM91.5382 49.1318H92.5684L91.5176 42.5699H90.0136L88.9629 49.1318H89.9106L90.096 47.935H91.3528L91.5382 49.1318ZM91.2086 47.0477H90.2197L90.7141 43.7255L91.2086 47.0477ZM94.0312 47.6255V42.5699H94.0106H92.9805V47.5636C92.9805 48.616 93.4955 49.2144 94.5257 49.2144C95.5558 49.2144 96.0709 48.616 96.0709 47.5636V42.5699H95.1025V47.6255C95.1025 48.1001 94.8965 48.2652 94.5669 48.2652C94.2372 48.2652 94.0312 48.1001 94.0312 47.6255ZM102.993 45.335H101.572V45.3144V43.4779H103.344V42.5493H100.542V49.1112H103.344V48.1826H101.572V46.2636H102.993V45.335ZM106.146 49.1318L106.143 49.1256C106.083 48.9641 106.043 48.8568 106.043 48.3271V47.2953C106.043 46.6763 105.837 46.4699 105.363 46.4699H105.012V49.1525H103.982V42.5905H105.528C106.599 42.5905 107.052 43.0858 107.052 44.0969V44.6128C107.052 45.2937 106.846 45.7271 106.372 45.954C106.887 46.1604 107.052 46.6763 107.052 47.3572V48.3683V48.3683C107.052 48.6779 107.052 48.9255 107.155 49.1731H106.104L106.146 49.1318ZM105.012 43.4985V45.5207H105.425C105.816 45.5207 106.043 45.3556 106.043 44.8191V44.1794C106.043 43.7048 105.878 43.4985 105.528 43.4985H105.033H105.012ZM112.326 44.3858V49.1318H111.399V42.5699H112.697L113.748 46.4906V42.5699H114.675V49.1318H113.624L112.347 44.3858H112.326ZM117.848 45.335H116.426V45.3144V43.4779H118.198V42.5493H115.396V49.1112H118.198V48.1826H116.426V46.2636H117.848V45.335ZM118.796 45.3763H120.671V46.3048H118.796V45.3763ZM123.532 49.1256L123.534 49.1318L123.493 49.1731H124.544C124.441 48.9255 124.441 48.6779 124.441 48.3684V48.3683V47.3572C124.441 46.6763 124.276 46.1604 123.761 45.954C124.235 45.7271 124.441 45.2937 124.441 44.6128V44.0969C124.441 43.0858 123.988 42.5905 122.916 42.5905H121.371V49.1525H122.401V46.4699H122.752C123.225 46.4699 123.431 46.6763 123.431 47.2953V48.3271C123.431 48.8568 123.472 48.9641 123.532 49.1256ZM122.401 45.5207V43.4985H122.422H122.916C123.267 43.4985 123.431 43.7048 123.431 44.1794V44.8191C123.431 45.3556 123.205 45.5207 122.813 45.5207H122.401ZM126.172 49.1318H125.141V42.5699H126.172V45.3763H127.346V42.5699H128.397V49.1318H127.346V46.3255H126.172V49.1318ZM133.774 44.3858V49.1318H132.847V42.5699H134.145L135.196 46.4906V42.5699H136.123V49.1318H135.072L133.795 44.3858H133.774ZM139.296 45.335H137.874V45.3144V43.4779H139.646V42.5493H136.844V49.1112H139.646V48.1826H137.874V46.2636H139.296V45.335ZM140.243 45.3763H142.118V46.3048H140.243V45.3763ZM145.126 49.1318H146.156L145.106 42.5699H143.602L142.551 49.1318H143.499L143.684 47.935H144.941L145.126 49.1318ZM144.302 43.7255L144.797 47.0477H143.808L144.302 43.7255ZM146.63 42.5699H147.66V48.2033H149.35V49.1318H146.63V42.5699ZM152.873 45.0461V44.2207C152.873 43.1683 152.358 42.5905 151.328 42.5905H149.803V49.1525H150.833V46.6763H151.328C152.358 46.6763 152.873 46.0985 152.873 45.0461ZM150.854 45.7271V43.4985H151.348C151.678 43.4985 151.863 43.6429 151.863 44.1175V45.108C151.863 45.5826 151.678 45.7271 151.348 45.7271H150.854ZM154.377 45.335H155.798V46.2636H154.377V48.1826H156.149V49.1112H153.347V42.5493H156.149V43.4779H154.377V45.3144V45.335ZM159.713 44.1382C159.713 43.0859 159.198 42.4875 158.188 42.4875C157.179 42.4875 156.664 43.0859 156.664 44.1382C156.664 45.1559 157.257 45.7009 157.8 46.2001C158.259 46.622 158.683 47.0112 158.683 47.6256C158.683 48.1002 158.477 48.2652 158.147 48.2652C157.818 48.2652 157.612 48.1002 157.612 47.6256V47.151H156.643V47.5636C156.643 48.616 157.158 49.2144 158.188 49.2144C159.219 49.2144 159.734 48.616 159.734 47.5636C159.734 46.546 159.141 46.001 158.597 45.5018C158.138 45.0799 157.715 44.6907 157.715 44.0763C157.715 43.6224 157.9 43.4367 158.23 43.4367C158.559 43.4367 158.745 43.6017 158.745 44.0763V44.3446H159.713V44.1382Z" fill="white"></path><path fill-rule="evenodd" clip-rule="evenodd" d="M136.72 7.65551V7.75868H136.7H135.443C135.505 7.5936 135.608 7.42852 135.752 7.32535C135.896 7.22217 136.04 7.16027 136.205 7.16027C136.37 7.16027 136.494 7.22217 136.576 7.30471C136.679 7.38725 136.72 7.51106 136.72 7.65551ZM136.968 6.58249C136.741 6.45868 136.453 6.39678 136.143 6.39678L136.102 6.37614C135.773 6.37614 135.443 6.45868 135.175 6.62376C134.887 6.78884 134.681 7.01582 134.516 7.28408C134.372 7.55233 134.289 7.86186 134.289 8.21265C134.289 8.52217 134.351 8.76979 134.495 8.99678C134.639 9.22376 134.845 9.38884 135.093 9.51265C135.34 9.63646 135.628 9.69836 135.979 9.69836C136.494 9.69836 136.947 9.53328 137.297 9.20313L136.762 8.62535C136.535 8.81106 136.288 8.8936 136.02 8.8936C135.834 8.8936 135.67 8.85233 135.546 8.74916C135.422 8.64598 135.34 8.50154 135.34 8.31582H137.627C137.689 8.13011 137.689 7.98567 137.689 7.84122C137.689 7.55233 137.627 7.30471 137.503 7.07773C137.38 6.87138 137.194 6.7063 136.968 6.58249ZM134.392 6.39678C133.939 6.39678 133.568 6.56186 133.28 6.93328L133.383 6.43805H132.332L131.693 9.65709H132.744L133.053 8.10948C133.094 7.88249 133.218 7.71741 133.424 7.57297C133.609 7.42852 133.836 7.36662 134.104 7.36662H134.269L134.392 6.39678ZM129.365 7.32535C129.489 7.24281 129.633 7.20154 129.777 7.20154L129.757 7.22217C129.942 7.22217 130.086 7.28408 130.189 7.40789C130.292 7.5317 130.354 7.69678 130.354 7.90313C130.354 8.06821 130.333 8.23328 130.251 8.37773C130.189 8.50154 130.086 8.62535 129.963 8.70789C129.839 8.79043 129.695 8.8317 129.551 8.8317C129.365 8.8317 129.221 8.76979 129.118 8.64598C129.015 8.52217 128.953 8.35709 128.953 8.15074C128.953 7.96503 128.974 7.82059 129.056 7.67614C129.139 7.5317 129.242 7.40789 129.365 7.32535ZM130.849 6.58249C130.663 6.45868 130.436 6.39678 130.189 6.39678V6.37614C130.004 6.37614 129.818 6.39678 129.654 6.47932C129.489 6.54122 129.345 6.6444 129.2 6.78884L129.509 5.19995H128.459L127.573 9.63646H128.623L128.726 9.12059C128.809 9.3063 128.953 9.45075 129.118 9.55392C129.303 9.65709 129.489 9.69836 129.736 9.69836C130.045 9.69836 130.333 9.61582 130.601 9.45074C130.869 9.28567 131.075 9.05868 131.219 8.76979C131.364 8.4809 131.446 8.17138 131.446 7.82059C131.446 7.5317 131.384 7.28408 131.281 7.07773C131.178 6.87138 131.034 6.7063 130.849 6.58249ZM126.934 6.66503C126.728 6.47932 126.46 6.37614 126.131 6.37614V6.39678C125.657 6.39678 125.245 6.62376 124.936 7.09836C124.874 6.87138 124.75 6.7063 124.565 6.58249C124.379 6.45868 124.153 6.39678 123.885 6.39678C123.473 6.39678 123.143 6.56186 122.875 6.87138L122.958 6.43805H121.907L121.268 9.65709H122.319L122.649 8.0063C122.69 7.79995 122.772 7.63487 122.916 7.49043C123.061 7.34598 123.205 7.28408 123.39 7.28408C123.535 7.28408 123.658 7.32535 123.741 7.40789C123.823 7.49043 123.864 7.5936 123.864 7.73805V7.90313L123.514 9.65709H124.565L124.894 8.0063C124.936 7.79995 125.018 7.63487 125.162 7.49043C125.306 7.34598 125.471 7.28408 125.636 7.28408C125.78 7.28408 125.904 7.32535 125.986 7.40789C126.069 7.49043 126.11 7.5936 126.11 7.73805V7.90313L125.76 9.65709H126.81L127.202 7.73805C127.222 7.65552 127.222 7.55237 127.222 7.42859V7.42852C127.222 7.119 127.14 6.85074 126.934 6.66503ZM119.311 8.74916C119.187 8.8317 119.043 8.87297 118.899 8.87297L118.92 8.8936C118.734 8.8936 118.59 8.8317 118.487 8.70789C118.384 8.58408 118.322 8.419 118.322 8.21265C118.322 8.02694 118.343 7.88249 118.425 7.73805C118.487 7.5936 118.59 7.46979 118.713 7.38725C118.837 7.30471 118.981 7.26344 119.126 7.26344C119.311 7.26344 119.455 7.32535 119.558 7.44916C119.661 7.57297 119.723 7.73805 119.723 7.9444C119.723 8.10947 119.702 8.27455 119.62 8.419C119.538 8.54281 119.435 8.66662 119.311 8.74916ZM117.828 9.51265C118.034 9.63646 118.24 9.69836 118.487 9.69836C118.858 9.69836 119.187 9.55392 119.476 9.26503L119.393 9.65709H120.444L121.083 6.43805H120.032L119.929 6.97455C119.744 6.58249 119.414 6.39678 118.92 6.39678C118.61 6.39678 118.322 6.47932 118.054 6.6444C117.786 6.80948 117.58 7.03646 117.436 7.32535C117.292 7.61424 117.209 7.92376 117.209 8.27455C117.209 8.56344 117.271 8.81106 117.374 9.01741C117.498 9.22376 117.642 9.38884 117.828 9.51265ZM116.571 6.66503C116.365 6.47932 116.097 6.37614 115.767 6.37614V6.35551C115.355 6.35551 115.026 6.52059 114.778 6.83011L115.108 5.19995H114.037L113.171 9.63646H114.222L114.552 7.98567C114.593 7.77932 114.675 7.61424 114.82 7.46979C114.964 7.32535 115.108 7.26344 115.293 7.26344C115.438 7.26344 115.561 7.30471 115.644 7.38725C115.726 7.46979 115.767 7.57297 115.767 7.71741V7.88249L115.417 9.63646H116.468L116.859 7.71741C116.88 7.61426 116.88 7.5111 116.88 7.42857V7.42852C116.88 7.119 116.777 6.85074 116.571 6.66503ZM112.368 5.59201C112.079 5.46821 111.77 5.4063 111.461 5.4063V5.42694C111.008 5.42694 110.596 5.53011 110.225 5.73646C109.854 5.94281 109.566 6.2317 109.339 6.58249C109.113 6.95392 109.01 7.34598 109.01 7.77932C109.01 8.15074 109.092 8.4809 109.257 8.79043C109.422 9.07932 109.648 9.32694 109.957 9.49201C110.266 9.65709 110.596 9.73963 110.987 9.73963C111.296 9.73963 111.606 9.67773 111.935 9.53328C112.265 9.38884 112.553 9.20313 112.8 8.95551L112.244 8.27455C112.079 8.419 111.915 8.54281 111.709 8.62535C111.502 8.70789 111.317 8.74916 111.152 8.74916C110.967 8.74916 110.802 8.70789 110.637 8.60471C110.472 8.50154 110.349 8.37773 110.266 8.21265C110.184 8.04757 110.143 7.86186 110.143 7.65551C110.143 7.42852 110.205 7.20154 110.308 6.99519C110.411 6.78884 110.575 6.6444 110.761 6.52059C110.967 6.39678 111.173 6.33487 111.399 6.33487C111.585 6.33487 111.77 6.37614 111.935 6.47932C112.1 6.58249 112.244 6.72694 112.368 6.89201L113.089 6.12852C112.903 5.90154 112.656 5.71582 112.368 5.59201ZM147.372 21.9557C146.754 21.9557 146.156 21.8525 145.58 21.6255C145.003 21.3985 144.508 21.1096 144.117 20.7176L145.003 19.4588C145.332 19.7684 145.703 19.9953 146.115 20.1811C146.527 20.3668 146.898 20.4493 147.248 20.4493C147.475 20.4493 147.64 20.408 147.763 20.3255C147.887 20.243 147.949 20.1192 147.949 19.9747C147.949 19.8509 147.866 19.7477 147.722 19.6445C147.578 19.562 147.331 19.4382 147.001 19.3144C146.61 19.1699 146.301 19.0255 146.053 18.8811C145.806 18.7366 145.58 18.5509 145.394 18.3239C145.209 18.0763 145.126 17.7874 145.126 17.4366C145.126 17.0239 145.229 16.6525 145.456 16.343C145.662 16.0334 145.971 15.7858 146.362 15.6001C146.754 15.435 147.187 15.3318 147.681 15.3318C148.217 15.3318 148.752 15.435 149.267 15.6207C149.803 15.8065 150.277 16.0541 150.689 16.3842L149.762 17.643C149.391 17.3953 149.041 17.189 148.67 17.0445C148.299 16.9001 148.011 16.8176 147.743 16.8176C147.578 16.8176 147.413 16.8588 147.31 16.9414C147.187 17.0239 147.125 17.1271 147.125 17.2509C147.125 17.3747 147.207 17.4985 147.351 17.5811C147.516 17.6842 147.743 17.7874 148.072 17.9112C148.464 18.0763 148.794 18.2207 149.041 18.3652C149.309 18.5096 149.515 18.6953 149.7 18.943C149.886 19.1906 149.989 19.4795 149.989 19.8509C149.989 20.2636 149.886 20.635 149.659 20.9445C149.432 21.2541 149.123 21.5017 148.732 21.6874C148.34 21.8525 147.887 21.9557 147.372 21.9557ZM142.51 16.4255C143.087 15.7033 143.828 15.3318 144.735 15.3318L144.488 17.2715H144.179C143.663 17.2715 143.19 17.416 142.798 17.6842C142.407 17.9525 142.159 18.3239 142.036 18.7572L141.418 21.8731H139.296L140.573 15.4144H142.695L142.489 16.4255H142.51ZM136.865 18.0763V17.8493C136.865 17.5398 136.782 17.3128 136.597 17.1271C136.411 16.9414 136.164 16.8588 135.855 16.8588C135.525 16.8588 135.216 16.962 134.948 17.189C134.681 17.416 134.475 17.7049 134.33 18.0763H136.865ZM135.752 15.3525C136.391 15.3525 136.947 15.4763 137.421 15.7033C137.895 15.9509 138.266 16.2811 138.513 16.7144C138.76 17.1477 138.904 17.6636 138.904 18.2414C138.904 18.5096 138.863 18.8398 138.781 19.2112H134.207C134.248 19.5826 134.392 19.8509 134.619 20.0572C134.866 20.2636 135.175 20.3461 135.587 20.3461C136.123 20.3461 136.617 20.1604 137.071 19.8096L138.121 20.9652C137.4 21.6255 136.535 21.935 135.505 21.935C134.825 21.935 134.227 21.8112 133.712 21.5842C133.197 21.3366 132.806 21.0065 132.538 20.5525C132.27 20.0985 132.126 19.5826 132.126 19.0049C132.126 18.3033 132.291 17.6842 132.6 17.1271C132.909 16.5699 133.341 16.1366 133.898 15.8065C134.454 15.4969 135.072 15.3318 135.773 15.3318L135.752 15.3525ZM131.167 12.443C131.451 12.4448 131.674 12.5274 131.837 12.6906C132.002 12.8557 132.085 13.0826 132.085 13.3715C132.085 13.743 131.961 14.0525 131.693 14.3207C131.425 14.589 131.096 14.7128 130.725 14.7128C130.457 14.7128 130.23 14.6303 130.066 14.4652C129.901 14.3001 129.818 14.0731 129.818 13.7842C129.818 13.4128 129.942 13.1033 130.21 12.835C130.475 12.5692 130.781 12.4453 131.167 12.443ZM131.167 12.443L131.158 12.443H131.178L131.167 12.443ZM131.631 15.4144L130.354 21.8731H128.232L129.509 15.4144H131.611H131.631ZM125.821 19.6445C125.821 19.6445 125.801 19.789 125.801 19.8922C125.801 20.0366 125.821 20.1192 125.883 20.1811C125.945 20.243 126.027 20.2636 126.172 20.243C126.419 20.243 126.707 20.1604 127.058 19.9953L127.284 21.5636C127.037 21.6874 126.749 21.7906 126.44 21.8525C126.13 21.9144 125.821 21.9557 125.512 21.9557C124.935 21.9557 124.462 21.8112 124.132 21.5017C123.782 21.2128 123.617 20.8001 123.617 20.2842C123.617 20.1192 123.617 19.9541 123.658 19.8096L124.194 17.1271H123.308L123.576 15.7239H124.462L124.812 13.9287H126.913L126.563 15.7239H128.232L127.964 17.1271H126.275L125.78 19.6445H125.821ZM119.929 12.6699L121.68 13.3303L119.95 14.7128L118.487 14.589L119.908 12.6699H119.929ZM120.526 18.0763V17.8493C120.526 17.5398 120.444 17.3128 120.259 17.1271C120.073 16.9414 119.826 16.8588 119.517 16.8588C119.187 16.8588 118.878 16.962 118.61 17.189C118.343 17.416 118.137 17.7049 117.992 18.0763H120.526ZM119.414 15.3525C120.053 15.3525 120.609 15.4763 121.083 15.7033C121.557 15.9509 121.927 16.2811 122.175 16.7144C122.422 17.1477 122.566 17.6636 122.566 18.2414C122.566 18.5096 122.525 18.8398 122.443 19.2112H117.869C117.91 19.5826 118.054 19.8509 118.281 20.0572C118.528 20.2636 118.837 20.3461 119.249 20.3461C119.785 20.3461 120.279 20.1604 120.733 19.8096L121.783 20.9652C121.062 21.6255 120.197 21.935 119.167 21.935C118.487 21.935 117.889 21.8112 117.374 21.5842C116.859 21.3366 116.468 21.0065 116.2 20.5525C115.932 20.0985 115.788 19.5826 115.788 19.0049C115.788 18.3033 115.953 17.6842 116.262 17.1271C116.571 16.5699 117.003 16.1366 117.56 15.8065C118.116 15.4763 118.734 15.3318 119.435 15.3318L119.414 15.3525ZM113.274 13.4953H115.644L114.016 21.8525H112.1L113.151 16.4874L110.101 21.0271H108.7L107.423 16.4874L106.372 21.8731H104.456L106.084 13.516H108.433L109.916 18.4684L113.295 13.516L113.274 13.4953ZM101.366 19.5412C101.098 19.5412 100.851 19.6238 100.645 19.7889C100.439 19.9539 100.315 20.1809 100.253 20.4492H102.19C102.19 20.1603 102.128 19.9539 101.984 19.7889C101.84 19.6238 101.634 19.5412 101.366 19.5412ZM100.233 20.7174C100.233 21.0063 100.315 21.2333 100.48 21.3984C100.645 21.5635 100.871 21.646 101.16 21.646C101.325 21.646 101.469 21.6254 101.613 21.5635C101.757 21.5016 101.881 21.4396 102.005 21.3365L102.169 21.5635C102.046 21.6873 101.881 21.7698 101.716 21.8523C101.531 21.9143 101.345 21.9555 101.16 21.9555C100.913 21.9555 100.707 21.9143 100.501 21.8111C100.315 21.7079 100.171 21.5635 100.068 21.3777C99.9649 21.192 99.9237 20.9857 99.9237 20.7381C99.9237 20.4698 99.9855 20.2016 100.109 19.9746C100.233 19.7476 100.418 19.5825 100.645 19.4381C100.871 19.3143 101.119 19.2523 101.386 19.2523C101.737 19.2523 102.025 19.3555 102.211 19.5619C102.417 19.7682 102.52 20.0571 102.52 20.4079V20.408C102.52 20.4905 102.52 20.5936 102.499 20.7174H100.253H100.233ZM97.6986 21.6666C97.9046 21.6666 98.09 21.6047 98.2549 21.5016C98.4197 21.3984 98.5639 21.2539 98.6669 21.0682C98.7699 20.8825 98.8111 20.6762 98.8111 20.4698C98.8111 20.2016 98.7287 19.9746 98.5639 19.8095C98.3991 19.6444 98.1724 19.5619 97.9252 19.5619C97.7192 19.5619 97.5338 19.6238 97.3483 19.727C97.1835 19.8301 97.0393 19.9746 96.9363 20.1603C96.8333 20.346 96.7921 20.5523 96.7921 20.7587C96.7921 21.027 96.8745 21.2539 97.0393 21.419C97.2041 21.5841 97.4307 21.6666 97.6986 21.6666ZM97.5956 21.9555L97.5848 21.9555C97.7875 21.9542 97.99 21.9126 98.1724 21.8111C98.3579 21.7285 98.5227 21.5841 98.6463 21.419L98.5433 21.9349H98.8729L99.6146 18.1793H99.285L98.9141 20.0158C98.8523 19.7682 98.7287 19.5825 98.5433 19.4587C98.3579 19.3143 98.1312 19.2523 97.8634 19.2523C97.5956 19.2523 97.3689 19.3349 97.1423 19.4587C96.9363 19.6031 96.7509 19.7889 96.6272 20.0158C96.5036 20.2428 96.4418 20.4904 96.4418 20.7793C96.4418 21.0063 96.483 21.2127 96.586 21.3984C96.689 21.5635 96.8333 21.7079 96.9981 21.8111C97.1806 21.9126 97.363 21.9542 97.5848 21.9555L97.575 21.9555H97.5956ZM101.593 29.8587C101.551 29.7968 101.448 29.7968 101.448 29.7968V29.8174C101.386 29.8174 101.325 29.8381 101.283 29.8793C101.242 29.9206 101.222 29.9825 101.222 30.0444C101.222 30.1269 101.325 30.2301 101.325 30.2301L101.077 30.7873H101.283L101.593 30.2301C101.604 30.1965 101.621 30.169 101.634 30.1476C101.646 30.1295 101.654 30.1157 101.654 30.1063V30.0031C101.654 29.9412 101.634 29.9 101.593 29.8587ZM99.7589 33.5523L100.501 29.7968H100.171L99.4292 33.5523H99.7589ZM95.6795 31.4269C95.8855 31.2619 96.1328 31.1793 96.4006 31.1793C96.6684 31.1793 96.8745 31.2619 97.0187 31.4269C97.1629 31.592 97.2247 31.7984 97.2247 32.0873H95.2881C95.3499 31.819 95.4735 31.592 95.6795 31.4269ZM95.5353 33.0365C95.3705 32.8714 95.2881 32.6444 95.2881 32.3555H95.3087H97.5544C97.575 32.2317 97.575 32.1285 97.575 32.046C97.575 31.6952 97.472 31.4063 97.2659 31.2C97.0805 30.9936 96.7921 30.8904 96.4418 30.8904C96.174 30.8904 95.9267 30.9523 95.7001 31.0762C95.4735 31.2206 95.2881 31.3857 95.1644 31.6127C95.0408 31.8396 94.979 32.1079 94.979 32.3762C94.979 32.6238 95.0202 32.8301 95.1232 33.0158C95.2262 33.2015 95.3705 33.346 95.5559 33.4492C95.7619 33.5523 95.9679 33.5936 96.2152 33.5936C96.4006 33.5936 96.586 33.5523 96.7715 33.4904C96.9363 33.4079 97.1011 33.3254 97.2247 33.2015L97.0599 32.9746C96.9363 33.0777 96.8127 33.1396 96.6684 33.2015C96.5242 33.2635 96.38 33.2841 96.2152 33.2841C95.9267 33.2841 95.7001 33.2015 95.5353 33.0365ZM93.2896 33.1396C93.1248 33.2428 92.9393 33.3047 92.7333 33.3047C92.4655 33.3047 92.2388 33.2222 92.074 33.0571C91.9092 32.892 91.8268 32.665 91.8268 32.3968C91.8268 32.1904 91.868 31.9841 91.971 31.7984C92.074 31.6127 92.1976 31.4682 92.3831 31.365C92.5685 31.2619 92.7539 31.2 92.9599 31.2C93.2072 31.2 93.4338 31.2825 93.5986 31.4476C93.7634 31.6127 93.8459 31.8396 93.8459 32.1079C93.8459 32.3142 93.8046 32.5206 93.7016 32.7063C93.5986 32.892 93.4544 33.0365 93.2896 33.1396ZM92.6195 33.5936L92.6303 33.5936H92.6097L92.6195 33.5936ZM93.2072 33.4492C93.0247 33.5507 92.8223 33.5923 92.6195 33.5936C92.3978 33.5923 92.2153 33.5507 92.0328 33.4492C91.868 33.346 91.7238 33.2015 91.6208 33.0365C91.5177 32.8508 91.4765 32.6444 91.4765 32.4174C91.4765 32.1285 91.5383 31.8809 91.662 31.6539C91.7856 31.4269 91.971 31.2412 92.177 31.0968C92.4037 30.973 92.6303 30.8904 92.8981 30.8904C93.166 30.8904 93.3926 30.9523 93.578 31.0968C93.7634 31.2206 93.8871 31.4063 93.9489 31.6539L94.3197 29.8174H94.6494L93.9077 33.573H93.578L93.681 33.0571C93.5574 33.2222 93.3926 33.3666 93.2072 33.4492ZM88.7364 32.9746V32.7889H88.7158L89.0248 31.2412H89.8901L89.9313 30.973H89.066L89.2102 30.292H88.8806L88.7364 30.973H88.3449L88.3037 31.2412H88.6951L88.3861 32.8095C88.3655 32.892 88.3655 32.9746 88.3655 33.0365C88.3655 33.2015 88.4067 33.346 88.5097 33.4285C88.6127 33.5317 88.757 33.573 88.9218 33.573C89.1278 33.573 89.3338 33.5111 89.5399 33.3873L89.4781 33.119C89.3132 33.2015 89.1484 33.2635 89.0042 33.2635C88.9218 33.2635 88.8394 33.2635 88.7982 33.2015C88.757 33.1396 88.7364 33.0777 88.7364 32.9746ZM85.852 31.4269C86.058 31.2619 86.3052 31.1793 86.5731 31.1793C86.8409 31.1793 87.0469 31.2619 87.1911 31.4269C87.3354 31.592 87.3972 31.7984 87.3972 32.0873H85.4605C85.5223 31.819 85.6459 31.592 85.852 31.4269ZM85.6871 33.0365C85.5223 32.8714 85.4399 32.6444 85.4399 32.3555H85.4605H87.7062C87.7268 32.2317 87.7268 32.1285 87.7268 32.046C87.7268 31.6952 87.6238 31.4063 87.4178 31.2C87.2323 30.9936 86.9439 30.8904 86.5937 30.8904C86.3258 30.8904 86.0786 30.9523 85.852 31.0762C85.6253 31.2206 85.4399 31.3857 85.3163 31.6127C85.1927 31.8396 85.1309 32.1079 85.1309 32.3762C85.1309 32.6238 85.1721 32.8301 85.2751 33.0158C85.3781 33.2015 85.5223 33.346 85.7077 33.4492C85.9138 33.5523 86.1198 33.5936 86.367 33.5936C86.5525 33.5936 86.7379 33.5523 86.9233 33.4904L86.9233 33.4904C87.0881 33.4079 87.253 33.3254 87.3766 33.2015L87.2117 32.9746C87.0881 33.0777 86.9645 33.1396 86.8203 33.2015C86.6761 33.2635 86.5318 33.2841 86.367 33.2841C86.0786 33.2841 85.852 33.2015 85.6871 33.0365ZM159.548 31.5919C159.548 31.5919 159.528 31.7364 159.528 31.8395C159.528 31.984 159.548 32.0665 159.61 32.1284C159.672 32.1903 159.754 32.211 159.899 32.1903C160.146 32.1903 160.434 32.1078 160.784 31.9427L161.011 33.511C160.764 33.6348 160.475 33.7379 160.166 33.7998C159.857 33.8617 159.548 33.903 159.239 33.903C158.662 33.903 158.188 33.7586 157.859 33.449C157.529 33.1395 157.344 32.7475 157.344 32.2316V32.2315C157.344 32.0664 157.344 31.9014 157.385 31.757L157.921 29.0744H157.035L157.303 27.6713H158.188L158.539 25.876H160.64L160.29 27.6713H161.959L161.691 29.0744H160.002L159.507 31.5919H159.548ZM151.966 32.2522C152.255 32.2522 152.543 32.1697 152.791 32.0046C153.038 31.8395 153.244 31.6125 153.388 31.3237C153.532 31.0348 153.615 30.7252 153.615 30.3744C153.615 29.9617 153.512 29.6522 153.285 29.4046C153.058 29.157 152.77 29.0332 152.399 29.0332C152.111 29.0332 151.843 29.1157 151.575 29.2808C151.328 29.4459 151.122 29.6729 150.977 29.9617C150.833 30.2506 150.751 30.5602 150.751 30.8903C150.751 31.303 150.854 31.6125 151.08 31.8602C151.307 32.1078 151.596 32.2316 151.946 32.2316L151.966 32.2522ZM151.142 33.8824C150.648 33.8824 150.215 33.7586 149.844 33.5316C149.453 33.284 149.164 32.9538 148.958 32.5205C148.752 32.0871 148.649 31.5919 148.649 31.0348C148.649 30.3332 148.794 29.6935 149.103 29.1157C149.391 28.5379 149.803 28.084 150.339 27.7538C150.854 27.4237 151.431 27.2586 152.069 27.2586C153.038 27.2586 153.697 27.6506 154.068 28.4141L154.274 27.3411H156.375L155.098 33.7998H152.976L153.141 33.0364C152.585 33.5935 151.925 33.8824 151.163 33.8824H151.142ZM145.703 27.2586C146.383 27.2586 146.919 27.4443 147.31 27.8363C147.702 28.2284 147.908 28.7236 147.908 29.3633V29.3634C147.908 29.5903 147.908 29.7967 147.846 29.9824L147.084 33.7998H144.961L145.662 30.2919L145.662 30.2918C145.683 30.1887 145.703 30.0855 145.703 29.9824C145.703 29.6935 145.621 29.4665 145.456 29.3014C145.291 29.1363 145.064 29.0538 144.755 29.0538C144.405 29.0538 144.076 29.1983 143.787 29.4665C143.499 29.7348 143.313 30.0856 143.231 30.5189L142.572 33.7998H140.449L141.727 27.3411H143.849L143.684 28.2078C144.199 27.5887 144.858 27.2586 145.683 27.2586H145.703ZM135.731 32.2522C136.02 32.2522 136.308 32.1697 136.556 32.0046C136.803 31.8395 137.009 31.6125 137.153 31.3237C137.297 31.0348 137.38 30.7252 137.38 30.3744C137.38 29.9617 137.277 29.6522 137.05 29.4046C136.823 29.157 136.535 29.0332 136.164 29.0332C135.876 29.0332 135.608 29.1157 135.34 29.2808C135.093 29.4459 134.887 29.6729 134.742 29.9617C134.598 30.2506 134.516 30.5602 134.516 30.8903C134.516 31.303 134.619 31.6125 134.845 31.8602C135.072 32.1078 135.361 32.2316 135.711 32.2316L135.731 32.2522ZM134.907 33.8824C134.413 33.8824 133.98 33.7586 133.609 33.5316C133.218 33.284 132.929 32.9538 132.723 32.5205C132.517 32.0871 132.414 31.5919 132.414 31.0348C132.414 30.3332 132.559 29.6935 132.868 29.1157C133.156 28.5379 133.568 28.084 134.104 27.7538C134.619 27.4237 135.196 27.2586 135.834 27.2586C136.803 27.2586 137.462 27.6506 137.833 28.4141L138.039 27.3411H140.14L138.863 33.7998H136.741L136.906 33.0364C136.349 33.5935 135.69 33.8824 134.928 33.8824H134.907ZM128.912 33.8824C128.294 33.8824 127.696 33.7792 127.119 33.5522C126.543 33.3252 126.048 33.0364 125.657 32.6443L126.543 31.3856C126.872 31.6951 127.243 31.9221 127.655 32.1078C128.067 32.2935 128.438 32.376 128.788 32.376C129.015 32.376 129.18 32.3348 129.303 32.2522C129.427 32.1697 129.489 32.0459 129.489 31.9014C129.489 31.7776 129.406 31.6744 129.262 31.5713C129.118 31.4887 128.871 31.3649 128.541 31.2411C128.15 31.0967 127.841 30.9522 127.593 30.8078C127.346 30.6633 127.119 30.4776 126.934 30.2506C126.749 30.003 126.666 29.7141 126.666 29.3633C126.666 28.9506 126.769 28.5792 126.996 28.2697C127.202 27.9602 127.511 27.7125 127.902 27.5268C128.294 27.3617 128.726 27.2586 129.221 27.2586C129.757 27.2586 130.292 27.3617 130.807 27.5475C131.343 27.7332 131.817 27.9808 132.229 28.311L131.302 29.5697C130.931 29.3221 130.581 29.1157 130.21 28.9713C129.839 28.8268 129.551 28.7443 129.283 28.7443C129.118 28.7443 128.953 28.7856 128.85 28.8681C128.726 28.9506 128.665 29.0538 128.665 29.1776C128.665 29.3014 128.747 29.4252 128.891 29.5078C129.056 29.611 129.283 29.7141 129.612 29.8379C130.004 30.003 130.333 30.1475 130.581 30.2919C130.849 30.4363 131.055 30.6221 131.24 30.8697C131.425 31.1173 131.528 31.4062 131.528 31.7776C131.528 32.1903 131.425 32.5617 131.199 32.8713C130.972 33.1808 130.663 33.4284 130.272 33.6141C129.88 33.7792 129.427 33.8824 128.912 33.8824ZM125.234 24.3697C125.518 24.3716 125.741 24.4541 125.904 24.6173C126.069 24.7824 126.151 25.0094 126.151 25.2983C126.151 25.6697 126.027 25.9792 125.76 26.2475C125.492 26.5157 125.162 26.6395 124.791 26.6395C124.523 26.6395 124.297 26.557 124.132 26.3919C123.967 26.2268 123.885 25.9998 123.885 25.711C123.885 25.3395 124.008 25.03 124.276 24.7617C124.542 24.496 124.847 24.372 125.234 24.3697ZM125.234 24.3697L125.224 24.3697H125.245L125.234 24.3697ZM125.698 27.3411L124.42 33.7998H122.298L123.576 27.3411H125.677H125.698ZM119.888 31.5919C119.888 31.5919 119.867 31.7364 119.867 31.8395C119.867 31.984 119.888 32.0665 119.95 32.1284C120.011 32.1903 120.094 32.211 120.238 32.1903C120.485 32.1903 120.774 32.1078 121.124 31.9427L121.351 33.511C121.103 33.6348 120.815 33.7379 120.506 33.7998C120.197 33.8617 119.888 33.903 119.579 33.903C119.002 33.903 118.528 33.7586 118.198 33.449C117.848 33.1602 117.683 32.7475 117.683 32.2316C117.683 32.0665 117.683 31.9014 117.725 31.757L118.26 29.0744H117.374L117.642 27.6713H118.528L118.878 25.876H120.98L120.63 27.6713H122.298L122.031 29.0744H120.341L119.847 31.5919H119.888ZM115.046 28.3522C115.623 27.63 116.365 27.2586 117.271 27.2586L117.024 29.1983H116.715C116.2 29.1983 115.726 29.3427 115.335 29.611C114.943 29.8792 114.696 30.2506 114.572 30.684L113.954 33.7998H111.832L113.109 27.3411H115.232L115.026 28.3522H115.046ZM105.734 30.6633H108.062L107.403 27.63L105.713 30.6633H105.734ZM108.762 33.7998L108.433 32.3141H104.807L103.982 33.7998H101.757L106.723 25.4427H108.968L111.09 33.7998H108.762Z" fill="#D34336"></path><path fill-rule="evenodd" clip-rule="evenodd" d="M48.2106 38.0508C22.1686 38.0508 7.19039 31.1794 7.19039 20.5317C7.19039 9.88413 21.3033 3.19841 44.7493 2.43492C45.4086 2.41429 46.3358 2.39365 47.5101 2.37302C48.0046 2.37302 48.4166 1.96032 48.4166 1.44444C48.4166 1.34127 48.4166 1.25873 48.3754 1.15556C48.1076 0.453968 47.4277 0 46.686 0C46.145 0 45.6711 0.013448 45.2644 0.0249908C44.9586 0.0336688 44.6908 0.0412698 44.4609 0.0412698C16.6677 0.907936 0 9.43016 0 20.4698C0 34.3778 22.6013 40.5063 46.0473 40.5063C56.3487 40.5063 67.2888 39.4333 78.8676 37.2873C79.4651 37.1841 79.8772 36.6063 79.7535 35.9873C79.7535 35.9383 79.7406 35.9023 79.725 35.8587C79.7209 35.8472 79.7166 35.8352 79.7123 35.8222C79.4857 35.1206 78.7646 34.7079 78.0435 34.8524C66.8562 36.9778 56.905 38.0302 48.19 38.0302L48.2106 38.0508ZM67.7009 0.247797C70.2968 0.536686 73.5521 1.46526 75.942 2.68272C79.0324 9.4097 76.9928 17.6637 74.8501 21.5018L67.6185 0.247797H67.7009ZM48.3754 20.3461C48.3754 23.3794 48.9729 26.2683 50.0649 28.889L59.9748 0.825482C53.0729 4.53977 48.3754 11.8858 48.3754 20.3255V20.3461ZM69.6787 24.6381H58.306L55.7512 32.1905C55.7512 32.1905 64.7547 33.3254 70.7501 27.6508L69.6993 24.6175L69.6787 24.6381ZM37.7032 16.9827C37.5911 17.2858 36.5215 20.1177 35.4168 23.0425C34.4911 25.4934 33.5408 28.0095 33.1087 29.1573C35.0248 28.6414 37.0233 27.8986 39.0423 26.9494C38.8604 25.5946 38.6299 23.8809 38.4114 22.2568L38.4092 22.2404L38.4066 22.2212C38.0579 19.6291 37.7411 17.2738 37.7032 16.9827ZM24.6204 29.8589C26.557 30.1478 28.7615 30.0446 31.1309 29.5906L31.108 29.5279C30.4779 27.7983 26.7604 17.5938 26.557 16.9827C26.4455 17.7049 26.3608 18.2767 26.2265 19.1836L26.2263 19.1851L26.226 19.1871L26.2259 19.1876L26.2259 19.1877C25.9879 20.7948 25.594 23.4542 24.6204 29.8589ZM19.1606 15.5795C20.4586 12.67 22.1687 11.1637 23.1988 10.4621L20.335 27.4653C18.9958 25.443 16.7707 20.8827 19.1606 15.5795ZM27.4429 8.72856L27.4504 8.747L27.4429 8.7492V8.72856ZM27.4504 8.747C29.6967 8.0887 33.2987 8.00703 37.3529 8.62539C36.7718 10.1456 35.3104 13.9284 34.1391 16.9602L34.1361 16.9678C33.2737 19.2 32.5692 21.0234 32.4906 21.2333C32.4004 21.0165 31.6388 19.1263 30.7158 16.8359L30.7145 16.8326L30.714 16.8313L30.7135 16.8301L30.712 16.8263L30.7114 16.8249L30.7104 16.8225C29.5311 13.8957 28.0903 10.3203 27.4504 8.747ZM41.0202 9.61598C43.5132 10.4001 44.7699 12.1128 45.4292 14.6715C46.0885 17.2303 46.2739 21.4398 43.2453 24.3493L41.0202 9.61598ZM67.9069 19.2523H59.9748L63.9512 7.05707L67.9069 19.2523Z" fill="#D34336"></path></svg> 